<?xml version="1.0" standalone="no"?>
<!DOCTYPE svg PUBLIC "-//W3C//DTD SVG 20010904//EN"
 "http://www.w3.org/TR/2001/REC-SVG-20010904/DTD/svg10.dtd">
<svg version="1.0" xmlns="http://www.w3.org/2000/svg"
 width="512.000000pt" height="512.000000pt" viewBox="0 0 512.000000 512.000000"
 preserveAspectRatio="xMidYMid meet">

<g transform="translate(0.000000,512.000000) scale(0.100000,-0.100000)"
fill="#000000" stroke="none">
<path d="M905 4026 c-66 -29 -84 -82 -85 -246 0 -130 11 -170 56 -209 l35 -31
1651 0 1650 0 38 38 c45 45 54 89 48 258 -3 93 -6 113 -25 140 -49 69 83 64
-1715 64 -1324 -1 -1629 -3 -1653 -14z"/>
<path d="M1190 2811 c-301 -7 -308 -8 -347 -68 -15 -23 -18 -51 -18 -178 0
-170 10 -201 75 -240 35 -20 48 -20 1315 -23 1359 -2 1975 5 2012 26 12 7 32
27 45 44 22 31 23 42 23 190 0 174 -6 192 -75 232 -32 19 -70 20 -1394 21
-749 1 -1485 -1 -1636 -4z"/>
<path d="M1165 1580 c-273 -5 -283 -8 -322 -67 -15 -23 -18 -51 -18 -178 0
-171 11 -205 77 -238 34 -17 123 -18 1658 -18 1535 0 1624 1 1658 18 71 35 77
55 77 233 0 172 -4 188 -66 231 -22 16 -115 18 -1419 21 -767 2 -1508 1 -1645
-2z"/>
</g>
</svg>
