<?xml version="1.0" standalone="no"?>
<!DOCTYPE svg PUBLIC "-//W3C//DTD SVG 20010904//EN"
 "http://www.w3.org/TR/2001/REC-SVG-20010904/DTD/svg10.dtd">
<svg version="1.0" xmlns="http://www.w3.org/2000/svg"
 width="44.000000pt" height="44.000000pt" viewBox="0 0 44.000000 44.000000"
 preserveAspectRatio="xMidYMid meet">

<g transform="translate(0.000000,44.000000) scale(0.100000,-0.100000)"
fill="#000000" stroke="none">
<path d="M164 430 c-54 -12 -124 -72 -142 -121 -9 -23 -8 -25 19 -23 26 2 28
0 18 -18 -11 -21 -4 -92 13 -118 6 -10 7 3 3 36 -7 59 6 93 52 135 36 34 110
49 119 24 4 -9 13 -14 20 -11 8 3 14 1 14 -5 0 -6 5 -7 10 -4 6 4 17 1 25 -5
12 -10 15 -10 15 1 0 17 37 -28 46 -56 4 -11 12 -27 19 -35 8 -8 14 -18 14
-22 1 -5 1 -9 2 -10 0 -2 2 -11 4 -21 6 -35 13 -29 20 15 10 69 -10 126 -64
179 -61 62 -123 80 -207 59z"/>
<path d="M114 299 c-14 -15 -20 -41 -24 -96 -4 -63 -9 -78 -25 -87 -11 -6 -22
-12 -24 -14 -8 -4 53 -63 81 -78 37 -19 47 -18 60 11 6 14 18 25 27 26 9 0 2
5 -16 10 -23 7 -37 20 -52 52 -22 45 -28 107 -11 107 6 0 10 7 10 15 0 8 6 15
13 16 6 0 3 4 -8 9 l-20 9 20 0 c15 1 17 3 6 10 -7 5 -10 14 -7 20 12 19 -10
12 -30 -10z"/>
<path d="M231 261 c-8 -5 -9 -11 -3 -15 5 -3 12 1 16 9 6 17 6 18 -13 6z"/>
<path d="M268 112 c-33 -36 -40 -57 -27 -86 15 -33 52 -25 39 9 -9 24 -3 62
13 83 20 25 0 21 -25 -6z"/>
</g>
</svg>
